<svg width="70" height="65" viewBox="0 0 70 65" fill="none" xmlns="http://www.w3.org/2000/svg">
<path d="M62.5523 44.1069C65.2722 37.1179 65.6343 28.9541 62.6576 20.5588C59.7441 12.3445 53.4707 5.71327 45.3575 2.53029C22.0788 -6.60605 0 10.3025 0 32.3729C0 36.7895 0.884159 40.9955 2.48407 44.8311C7.3638 56.5273 18.9084 64.7458 32.3729 64.7458H69.4909C69.853 64.7458 70.0972 64.3795 69.9624 64.0469L62.5523 45.5553C62.3629 45.0922 62.3713 44.5743 62.5523 44.1069ZM38.8989 43.1554C27.1901 49.2688 15.4728 37.5515 21.5862 25.8427C22.5335 24.0281 24.0239 22.5376 25.8386 21.5903C37.5474 15.4769 49.2646 27.1942 43.1513 38.903C42.204 40.7219 40.7178 42.2081 38.8989 43.1554Z" fill="white"/>
</svg>
