<svg width="443" height="417" viewBox="0 0 443 417" fill="none" xmlns="http://www.w3.org/2000/svg">
<path d="M416.3 328.4C413.1 320.3 409.8 312.1 406.5 304C405.8 302.3 405.2 300.7 404.5 299L402.1 292.9C401.5 291.4 401.2 289.8 401.2 288.2V288.1C401.2 286.6 401.5 285 402.1 283.6C419.6 238.7 421.9 186.2 402.8 132.2C402.3 130.9 401.8 129.5 401.3 128.2C382 77.2 342.4 36.3 291.6 16.3C290.5 15.8 289.3 15.4 288.2 15C261 4.8 234 0 208.1 0C179.8 0 152.8 5.70001 128.1 15.9C77.5 37 37 77.5 15.9 128.1C5.7 152.7 0 179.7 0 208.1C0 236.4 5.7 263.4 15.9 288.1V288.2C37 338.8 77.5 379.2 128.1 400.3C152.7 410.6 179.7 416.2 208.1 416.2H422.6C436.4 416.2 445.9 402.3 440.7 389.4C433 369.9 422.7 344.3 416.3 328.4ZM210.9 267.2C177.4 268.8 149.7 242 149.7 208.9C149.7 176.7 175.8 150.5 208.1 150.5C241.3 150.5 268 178.1 266.4 211.6C265.1 241.5 240.8 265.8 210.9 267.2Z" fill="#000A16"/>
</svg>
