<svg width="18" height="18" viewBox="0 0 18 18" fill="none" xmlns="http://www.w3.org/2000/svg">
<path d="M5.27271 0.0628925C4.31504 0.108361 3.66113 0.261171 3.08972 0.4857C2.49768 0.716322 1.99658 1.02569 1.49736 1.52631C0.998605 2.0274 0.691102 2.52896 0.46235 3.12145C0.240629 3.69472 0.0906275 4.34909 0.0484396 5.30721C0.00578291 6.26532 -0.00359218 6.57328 0.00109536 9.01732C0.00578291 11.4614 0.0165643 11.7674 0.062971 12.7279C0.108909 13.6851 0.261254 14.339 0.485788 14.9108C0.716884 15.5024 1.02579 16.0035 1.52689 16.5027C2.02752 17.0019 2.52909 17.3085 3.123 17.5377C3.69582 17.7589 4.3502 17.9099 5.30834 17.9516C6.266 17.9938 6.57444 18.0036 9.01806 17.9989C11.4612 17.9942 11.7687 17.9835 12.7287 17.938C13.6887 17.8921 14.3389 17.7388 14.9112 17.5152C15.5028 17.2836 16.0044 16.9752 16.5031 16.4741C17.0019 15.973 17.3089 15.471 17.5381 14.878C17.7599 14.3057 17.9103 13.6509 17.9521 12.6937C17.9938 11.7332 18.0036 11.4262 17.9989 8.98263C17.9942 6.53907 17.9835 6.23251 17.938 5.27299C17.8925 4.313 17.7397 3.66144 17.5156 3.08911C17.2841 2.49755 16.9756 1.99646 16.4745 1.49725C15.9739 0.997569 15.4714 0.690541 14.8784 0.462263C14.3056 0.241015 13.6517 0.0900796 12.6936 0.0483614C11.7354 0.00711186 11.427 -0.00366926 8.9829 0.00101818C6.53882 0.00570563 6.23272 0.0164868 5.27271 0.0628925ZM5.37771 16.3325C4.5002 16.2946 4.02395 16.1488 3.7066 16.0269C3.28613 15.8647 2.98659 15.6688 2.66972 15.3557C2.35331 15.0421 2.15924 14.7416 1.99471 14.3221C1.87143 14.0043 1.7233 13.5285 1.68205 12.651C1.63752 11.7028 1.62814 11.4178 1.62299 9.01497C1.61783 6.61219 1.62674 6.32813 1.66846 5.37892C1.70596 4.50237 1.85268 4.02519 1.97455 3.70785C2.13627 3.28692 2.33174 2.98786 2.64581 2.67192C2.95987 2.35552 3.25941 2.16099 3.67941 1.99646C3.99676 1.87271 4.47255 1.72553 5.34959 1.68381C6.29881 1.63881 6.58335 1.62991 8.98571 1.62475C11.3881 1.61912 11.6731 1.6285 12.6228 1.67022C13.4994 1.70819 13.9765 1.8535 14.2939 1.97631C14.7144 2.13802 15.0139 2.33255 15.3298 2.64708C15.6462 2.96208 15.8413 3.26067 16.0053 3.6816C16.1295 3.99753 16.2767 4.47331 16.318 5.35127C16.3634 6.30001 16.3733 6.58453 16.378 8.98685C16.3822 11.3892 16.3738 11.6746 16.332 12.6229C16.2936 13.5004 16.1483 13.9771 16.0259 14.2949C15.8642 14.7154 15.6687 15.0149 15.3547 15.3308C15.0401 15.6472 14.7411 15.8418 14.3206 16.0058C14.0037 16.1296 13.5275 16.2772 12.6509 16.319C11.7017 16.3635 11.4176 16.3729 9.01431 16.3785C6.61054 16.3836 6.32741 16.3738 5.37818 16.3325M12.7151 4.18972C12.7151 4.26097 12.7222 4.33081 12.7362 4.40065C12.7498 4.47003 12.7704 4.53753 12.7976 4.60315C12.8253 4.66878 12.8586 4.73065 12.8979 4.78971C12.9373 4.8483 12.9823 4.90315 13.0325 4.9533C13.0826 5.00299 13.1375 5.04799 13.1965 5.0869C13.2556 5.12627 13.3179 5.15955 13.3836 5.18674C13.4492 5.21346 13.5167 5.23408 13.5861 5.24767C13.6559 5.26127 13.7258 5.2683 13.797 5.2683C13.8678 5.26783 13.9381 5.2608 14.0075 5.24674C14.0769 5.23314 14.1444 5.21252 14.21 5.18533C14.2756 5.15768 14.3375 5.12439 14.3965 5.08502C14.4556 5.04565 14.51 5.00065 14.5601 4.95049C14.6103 4.90034 14.6548 4.84549 14.6942 4.78643C14.7331 4.72737 14.7664 4.66503 14.7936 4.5994C14.8208 4.53378 14.8409 4.46628 14.8545 4.3969C14.8681 4.32706 14.8751 4.25675 14.8751 4.18597C14.8747 4.11519 14.8676 4.04488 14.8536 3.9755C14.84 3.90566 14.8194 3.83816 14.7922 3.77301C14.7645 3.70738 14.7312 3.64504 14.6919 3.58644C14.6525 3.52738 14.6075 3.47301 14.5573 3.42285C14.5067 3.3727 14.4523 3.32817 14.3933 3.28879C14.3342 3.24989 14.2719 3.21661 14.2062 3.18942C14.1406 3.1627 14.0731 3.14208 14.0037 3.12848C13.9339 3.11489 13.8636 3.10786 13.7928 3.10833C13.722 3.10833 13.6517 3.11536 13.5823 3.12942C13.5125 3.14301 13.445 3.16364 13.3798 3.19129C13.3142 3.21848 13.2523 3.25176 13.1933 3.29114C13.1342 3.33051 13.0798 3.37551 13.0297 3.42567C12.98 3.47582 12.935 3.53066 12.8961 3.58973C12.8567 3.64879 12.8234 3.71113 12.7962 3.77675C12.7695 3.84191 12.7489 3.90988 12.7353 3.97925C12.7217 4.04863 12.7147 4.11894 12.7151 4.18972ZM4.37926 9.00888C4.38395 11.5612 6.45678 13.6255 9.00868 13.6209C11.5606 13.6162 13.6269 11.5434 13.6217 8.99107C13.617 6.43875 11.5437 4.37347 8.99134 4.37862C6.43897 4.38378 4.37411 6.45704 4.37926 9.00888ZM6.00022 9.0056C5.99975 8.90763 6.00444 8.80966 6.01381 8.7117C6.02365 8.61373 6.03772 8.5167 6.05647 8.42014C6.07569 8.32405 6.09912 8.22889 6.12772 8.13467C6.15584 8.04045 6.18866 7.94811 6.22616 7.85718C6.26366 7.76624 6.30538 7.67765 6.35178 7.59093C6.39772 7.50421 6.44788 7.41984 6.50225 7.33781C6.5571 7.25624 6.61522 7.1775 6.67757 7.10109C6.73944 7.02515 6.80554 6.9525 6.87444 6.88266C6.94382 6.81328 7.01648 6.74719 7.09242 6.68438C7.16835 6.62203 7.2471 6.56344 7.32867 6.5086C7.41023 6.45375 7.49414 6.40313 7.58086 6.35672C7.66711 6.31032 7.75617 6.26813 7.84664 6.23063C7.93758 6.19266 8.02992 6.15938 8.12368 6.13079C8.21743 6.1022 8.31258 6.07782 8.40915 6.0586C8.50524 6.03938 8.60227 6.02485 8.70024 6.01501C8.79821 6.00517 8.89618 6.00001 8.99415 6.00001C9.09259 5.99954 9.19056 6.00423 9.28853 6.0136C9.38603 6.02298 9.48306 6.03751 9.57963 6.05626C9.67619 6.07548 9.77135 6.09891 9.86557 6.12704C9.95932 6.15563 10.0521 6.18845 10.1426 6.22594C10.2335 6.26344 10.3226 6.30516 10.4093 6.3511C10.496 6.3975 10.5804 6.44766 10.662 6.50204C10.744 6.55641 10.8228 6.615 10.8987 6.67688C10.9751 6.73922 11.0478 6.80484 11.1176 6.87422C11.187 6.94359 11.2531 7.01625 11.3154 7.09218C11.3782 7.16765 11.4368 7.2464 11.4912 7.32796C11.5461 7.40952 11.5967 7.4939 11.6431 7.58015C11.69 7.66686 11.7317 7.75546 11.7696 7.84639C11.8076 7.93686 11.8409 8.0292 11.8695 8.12342C11.8981 8.21717 11.922 8.31233 11.9417 8.40889C11.9609 8.50498 11.9754 8.60201 11.9853 8.69998C11.9951 8.79748 12.0003 8.89544 12.0003 8.99388C12.0007 9.09232 11.9961 9.19028 11.9867 9.28778C11.9768 9.38575 11.9628 9.48278 11.944 9.57934C11.9248 9.67544 11.9014 9.77106 11.8728 9.86481C11.8446 9.95903 11.8118 10.0514 11.7743 10.1423C11.7368 10.2332 11.6951 10.3218 11.6487 10.4086C11.6028 10.4953 11.5526 10.5796 11.4982 10.6617C11.4434 10.7432 11.3853 10.8225 11.3229 10.8984C11.261 10.9743 11.195 11.0475 11.126 11.1168C11.0567 11.1867 10.984 11.2528 10.9081 11.3151C10.8321 11.3774 10.7534 11.436 10.6718 11.4909C10.5903 11.5457 10.5064 11.5963 10.4196 11.6428C10.3334 11.6892 10.2443 11.7313 10.1539 11.7693C10.0629 11.8068 9.97057 11.8401 9.87682 11.8687C9.78307 11.8978 9.68791 11.9217 9.59135 11.9409C9.49525 11.9606 9.39775 11.9751 9.30025 11.9849C9.20228 11.9948 9.10431 11.9995 9.00634 11.9999C8.9079 11.9999 8.80993 11.9953 8.71196 11.9859C8.61446 11.9765 8.51696 11.9624 8.42087 11.9432C8.3243 11.9245 8.22915 11.9006 8.13492 11.8724C8.04071 11.8443 7.94836 11.811 7.85742 11.774C7.76695 11.7365 7.67789 11.6948 7.59117 11.6484C7.50445 11.6024 7.42007 11.5523 7.33851 11.4974C7.25648 11.4431 7.17773 11.3849 7.10132 11.3226C7.02538 11.2607 6.95273 11.1946 6.88288 11.1253C6.81351 11.0559 6.74741 10.9837 6.6846 10.9078C6.62225 10.8318 6.56366 10.7531 6.50882 10.6715C6.45397 10.59 6.40381 10.5061 6.35694 10.4193C6.31053 10.3326 6.26834 10.244 6.23084 10.1536C6.19288 10.0626 6.15959 9.97027 6.131 9.87653C6.10241 9.78231 6.07803 9.68715 6.05881 9.59106C6.03959 9.4945 6.02506 9.39747 6.01522 9.29997C6.00537 9.202 6.00022 9.10404 6.00022 9.0056Z" fill="#000A16"/>
</svg>
