<svg width="18" height="18" viewBox="0 0 18 18" fill="none" xmlns="http://www.w3.org/2000/svg">
<mask id="mask0_2_12" style="mask-type:luminance" maskUnits="userSpaceOnUse" x="0" y="0" width="18" height="18">
<path d="M0 0H18V18H0V0Z" fill="white"/>
</mask>
<g mask="url(#mask0_2_12)">
<path fill-rule="evenodd" clip-rule="evenodd" d="M15.3774 2.61375C13.6856 0.929063 11.4351 0.0009375 9.03769 0C4.09768 0 0.0767902 3.99797 0.0753769 8.91234C0.0744347 10.4831 0.487594 12.0164 1.27151 13.3678L0 17.9869L4.7511 16.7475C6.0603 17.4577 7.53439 17.8317 9.03392 17.8322H9.03769C13.9772 17.8322 17.9981 13.8338 18 8.91938C18.0009 6.53766 17.0696 4.29891 15.3774 2.61422V2.61375ZM9.03769 16.327H9.03486C7.69834 16.3266 6.38725 15.9689 5.2434 15.2944L4.97111 15.1336L2.15154 15.8691L2.90437 13.1353L2.72723 12.855C1.98147 11.6756 1.58763 10.312 1.58857 8.91281C1.58998 4.82859 4.93153 1.50516 9.04099 1.50516C11.0305 1.50609 12.9008 2.27766 14.3075 3.67781C15.7137 5.07797 16.4878 6.93938 16.4868 8.91844C16.4854 13.0031 13.1434 16.3266 9.03769 16.3266V16.327ZM13.1236 10.7789C12.8998 10.6673 11.7988 10.1288 11.5934 10.0547C11.388 9.98016 11.2392 9.94313 11.0898 10.1663C10.941 10.3894 10.5113 10.8909 10.3808 11.0391C10.2503 11.1881 10.1193 11.2064 9.89557 11.0948C9.6718 10.9833 8.95006 10.748 8.09453 9.98953C7.42886 9.39891 6.97943 8.67 6.84893 8.44688C6.71797 8.22375 6.83527 8.10328 6.94692 7.99266C7.04727 7.89234 7.1707 7.7325 7.28282 7.60219C7.39494 7.47234 7.43216 7.37953 7.5066 7.23094C7.5815 7.08234 7.54428 6.9525 7.48822 6.84094C7.43216 6.72938 6.98461 5.63297 6.79758 5.18719C6.61574 4.75313 6.43106 4.81219 6.29397 4.80516C6.16347 4.79859 6.01413 4.79719 5.86479 4.79719C5.71498 4.79719 5.47283 4.85297 5.26743 5.07609C5.06203 5.29875 4.48351 5.83781 4.48351 6.93375C4.48351 8.02922 5.2858 9.08859 5.39793 9.23766C5.51005 9.38625 6.97707 11.6353 9.2233 12.6005C9.75754 12.8297 10.1749 12.967 10.5005 13.0697C11.0366 13.2394 11.5247 13.2155 11.9105 13.1578C12.3406 13.0941 13.2357 12.6192 13.4223 12.0989C13.6084 11.5791 13.6084 11.1328 13.5528 11.04C13.4967 10.9472 13.3474 10.8914 13.1236 10.7798V10.7789Z" fill="#000A16"/>
</g>
</svg>
