<svg width="28" height="18" viewBox="0 0 28 18" fill="none" xmlns="http://www.w3.org/2000/svg">
<mask id="mask0_2_7" style="mask-type:luminance" maskUnits="userSpaceOnUse" x="0" y="0" width="28" height="18">
<path d="M0 0H27.9V18H0V0Z" fill="white"/>
</mask>
<g mask="url(#mask0_2_7)">
<path d="M11.1058 12.7991V5.20197L18.3721 9.00085L11.1058 12.7991ZM27.2696 2.81135C26.9499 1.7051 26.0076 0.83389 24.8116 0.537908C22.6436 0.000854574 13.9488 0.000854492 13.9488 0.000854492C13.9488 0.000854492 5.25476 0.000854574 3.0867 0.537908C1.89077 0.83389 0.948423 1.7051 0.628735 2.81135C0.0474854 4.81693 0.0474854 9.00019 0.0474854 9.00019C0.0474854 9.00019 0.0474854 13.1841 0.628735 15.1897C0.948423 16.2959 1.89077 17.1672 3.0867 17.4631C5.25476 18.0002 13.9488 18.0002 13.9488 18.0002C13.9488 18.0002 22.6436 18.0002 24.8116 17.4631C26.0076 17.1672 26.9499 16.2959 27.2696 15.1897C27.8509 13.1841 27.8509 9.00019 27.8509 9.00019C27.8509 9.00019 27.8509 4.81693 27.2696 2.81135Z" fill="#000A16"/>
</g>
</svg>
